#!OML:ASF X:\2005_08_12_Meinard\c3d\meinard.ASF
:FULLY-SPECIFIED
:DEGREES
2692
root 4.01199 16.1692 -0.897085 361.157 -62.7542 -379.918
lowerback 44.0436 0.861272 11.8511
upperback 3.09174 6.66715 1.61551
thorax -16.2892 1.87038 -7.47122
lowerneck -20.7358 8.97256 9.3874
upperneck 10.2994 11.1142 -10.145
head 7.64491 4.78677 -3.39802
rclavicle -9.04967e-014 -1.88845e-014
rhumerus -46.403 14.9125 -93.6779
rradius 53.3526
rwrist 11.4672
rhand -2.47576 -11.6101
rfingers 7.12502
rthumb 23.217 -40.2306
lclavicle -9.04967e-014 -1.88845e-014
lhumerus 7.33113 -19.3298 -704.9
lradius 128.914
lwrist 544.265
lhand 9.53232 22.8044
lfingers 7.12502
lthumb 34.6826 49.4339
rfemur -178.104 -182.242 206.377
rtibia 43.5841
rfoot 156.521 162.512
rtoes 7.50873
lfemur -196.796 168.635 -184.425
ltibia 65.6567
lfoot -17.8392 17.288
ltoes 17.6483
2693
root 4.04105 16.2105 -0.885657 363.048 -63.2143 -381.243
lowerback 44.3294 1.02477 11.0111
upperback 2.77933 6.65051 2.18678
thorax -16.95 1.85769 -6.43626
lowerneck -21.6883 9.69821 9.41632
upperneck 10.5328 12.1254 -10.6718
head 8.01992 5.17595 -3.39009
rclavicle -1.16786e-014 6.20208e-014
rhumerus -45.5959 16.1317 -93.0819
rradius 52.755
rwrist 9.70133
rhand -1.88781 -12.1655
rfingers 7.12502
rthumb 23.781 -40.7138
lclavicle -1.16786e-014 6.20208e-014
lhumerus 7.76603 -17.3172 -709.495
lradius 126.496
lwrist 544.595
lhand 9.14878 19.9512
lfingers 7.12502
lthumb 34.3185 46.6637
rfemur -178.832 -183.235 207.071
rtibia 43.2043
rfoot 157.28 162.597
rtoes 7.63522
lfemur -197.953 168.768 -183.677
ltibia 64.4347
lfoot -16.5863 18.0914
ltoes 17.0984
2694
root 4.07071 16.2497 -0.875453 364.89 -63.6717 -382.572
lowerback 44.6842 1.19545 10.0707
upperback 2.50311 6.59533 2.7775
thorax -17.6148 1.84759 -5.30644
lowerneck -22.8193 10.4389 9.23952
upperneck 10.8131 13.1682 -10.9449
head 8.41489 5.57982 -3.24479
rclavicle 9.88954e-015 6.95746e-015
rhumerus -44.6287 17.2247 -92.4981
rradius 52.3827
rwrist 8.10247
rhand -1.29057 -12.9012
rfingers 7.12502
rthumb 24.3537 -41.3738
lclavicle 9.88954e-015 6.95746e-015
lhumerus 7.88 -15.4658 -714.095
lradius 123.174
lwrist 545.761
lhand 6.74481 16.0147
lfingers 7.12502
lthumb 32.0328 43.214
rfemur -179.543 -183.982 207.613
rtibia 42.887
rfoot 158.057 162.945
rtoes 7.8691
lfemur -198.951 169.085 -182.913
ltibia 63.0481
lfoot -15.1846 19.0073
ltoes 16.5199
2695
root 4.1021 16.2829 -0.864487 366.688 -64.1166 -383.969
lowerback 45.1608 1.37064 9.06808
upperback 2.26667 6.5224 3.4083
thorax -18.2884 1.84659 -4.08538
lowerneck -24.0429 11.1762 8.96756
upperneck 11.0828 14.2196 -11.1289
head 8.80839 5.98056 -3.03991
rclavicle -3.54831e-014 -4.25399e-014
rhumerus -43.4943 18.2161 -91.9148
rradius 52.2512
rwrist 6.73962
rhand -0.737172 -13.6814
rfingers 7.12502
rthumb 24.8841 -42.0817
lclavicle -3.54831e-014 -4.25399e-014
lhumerus 7.8329 -13.904 -719.042
lradius 118.502
lwrist 547.925
lhand 3.01494 11.6206
lfingers 7.12502
lthumb 28.4748 39.4735
rfemur -180.194 -184.384 208.014
rtibia 42.6476
rfoot 158.836 163.584
rtoes 8.09959
lfemur -199.664 169.743 -182.054
ltibia 61.5272
lfoot -13.7329 19.9155
ltoes 15.695
2696
root 4.13399 16.3124 -0.851769 368.575 -64.5122 -385.552
lowerback 45.7269 1.51578 8.11399
upperback 2.06338 6.43103 4.04188
thorax -18.9475 1.84738 -2.86651
lowerneck -25.2715 11.8926 8.60444
upperneck 11.3161 15.2409 -11.1302
head 9.16001 6.37586 -2.75549
rclavicle -5.08889e-014 -1.11319e-014
rhumerus -42.2573 19.0565 -91.3951
rradius 52.3086
rwrist 5.74732
rhand -0.375154 -14.2829
rfingers 7.12502
rthumb 25.231 -42.6348
lclavicle -5.08889e-014 -1.11319e-014
lhumerus 8.02012 -12.5025 -724.262
lradius 112.485
lwrist 551.023
lhand -1.38599 7.51746
lfingers 7.12502
lthumb 24.2622 36.0023
rfemur -180.8 -184.518 208.375
rtibia 42.5046
rfoot 159.553 164.481
rtoes 8.13188
lfemur -200.219 170.708 -181.054
ltibia 59.9151
lfoot -12.1062 20.839
ltoes 15.3292
